<svg xmlns="http://www.w3.org/2000/svg" width="956pt" height="317pt" viewBox="0 0 956 317" version="1.1"><style>.style0{opacity:	1;fill:	#363435;}</style><g></g><g><path d=" M 165.5 40.4 C 169.8 55.8 174.5 71.2 179.9 86.2 C 187.3 107.8 194.8 129.4 202.2 151 C 178 151 153.7 151 129.5 151 C 136.8 129.9 144.2 108.8 151.5 87.6 C 157 72.1 162 56.5 165.5 40.4 Z" class="style0"/><path d=" M 62.6 114.6 C 83.4 91.8 108.2 72.8 127.3 48.5 C 104.7 108.7 82.4 169 59.9 229.2 C 37.2 211.7 28 179.1 38.1 152.3 C 43.3 138 52.6 125.8 62.6 114.6 Z" class="style0"/><path d=" M 205.2 51.6 C 226.7 78 254.9 98.2 276.1 124.9 C 285.9 137.4 293.9 151.9 295.6 167.9 C 298.1 190.5 288.8 214.1 271.2 228.4 C 249.1 169.5 227.4 110.5 205.2 51.6 Z" class="style0"/><path d=" M 635.4 194.1 C 635.4 164.6 635.4 135.2 635.4 105.8 C 639.9 105.8 644.3 105.8 648.7 105.8 C 648.6 117.3 649.1 128.8 648 140.2 C 651 136.3 654.7 132.6 659.6 131.3 C 666.8 129.4 674.9 129.8 681.4 133.5 C 687.7 137.3 690 145 690.1 152 C 690.2 166 690.1 180 690.1 194.1 C 685.7 194.1 681.2 194.1 676.8 194.1 C 676.8 180.7 676.9 167.3 676.7 154 C 676.6 149.3 675 143.7 670 142 C 663.9 140 655.8 141.2 652 147 C 648.6 152.7 648.7 159.6 648.7 166 C 648.7 175.3 648.7 184.7 648.7 194.1 C 644.3 194.1 639.9 194.1 635.4 194.1 Z" class="style0"/><path d=" M 331.9 194 C 342.2 166.3 352.4 138.5 362.7 110.8 C 367.6 110.8 372.4 110.8 377.3 110.8 C 387.6 138.5 397.8 166.3 408.1 194 C 403.3 194 398.5 194 393.7 194 C 391 186.4 388.3 178.7 385.6 171.1 C 375.1 171 364.7 171.1 354.2 171.1 C 351.5 178.7 348.9 186.4 346.2 194 C 341.4 194 336.7 194 331.9 194 M 370 122.7 C 367 135.2 362.1 147.1 358.2 159.3 C 366.1 159.3 374 159.3 382 159.3 C 378 147.1 373.3 135.1 370 122.7 Z" class="style0"/><path d=" M 562.6 111.2 C 583.2 111.2 603.8 111.2 624.4 111.2 C 624.4 115.1 624.4 118.9 624.4 122.8 C 616.3 122.8 608.3 122.8 600.3 122.8 C 600.2 146.6 600.3 170.3 600.2 194.1 C 595.8 194.1 591.2 194.1 586.8 194.1 C 586.7 170.3 586.8 146.6 586.7 122.8 C 578.7 122.8 570.7 122.8 562.6 122.8 C 562.6 118.9 562.6 115.1 562.6 111.2 Z" class="style0"/><path d=" M 429.7 132.8 C 439.8 128.8 451.5 129.5 461.3 133.9 C 460 137.5 458.6 141.1 457.3 144.7 C 450.7 142.3 443.3 139.8 436.5 142.7 C 431.2 144.9 428.6 150.6 427.9 156 C 427 162.4 427 169.3 429.5 175.4 C 431.2 179.7 435.2 183.1 439.9 183.7 C 446.8 184.7 453.8 182.8 459.8 179.6 C 459.8 183.4 459.8 187.3 459.9 191.2 C 453 195.4 444.6 195.6 436.9 194.8 C 429 193.9 421.4 189.4 417.8 182.2 C 413.3 173.6 413.1 163.3 414.5 153.9 C 415.8 145 421.1 136.2 429.7 132.8 Z" class="style0"/><path d=" M 481.1 136.2 C 487.9 130.4 497.6 129.2 506.1 130.9 C 513.4 132.3 519.9 137.3 522.9 144.2 C 526.1 150.9 525.8 158.5 525.8 165.7 C 511.9 165.7 498.1 165.7 484.3 165.7 C 484.6 171.2 486 177 490.4 180.7 C 494.6 184.4 500.6 184.9 505.9 184.4 C 511.7 184.1 517.3 182.3 522.6 180 C 522.6 183.7 522.6 187.3 522.6 190.9 C 514.7 194.8 505.6 195.6 496.9 194.9 C 489.4 194.2 481.9 190.8 477.2 184.7 C 471.3 177.3 470.1 167.2 470.9 158 C 471.6 149.9 474.7 141.5 481.1 136.2 M 487.9 145.9 C 485.8 148.8 485 152.5 484.6 156 C 493.9 156 503.4 156 512.8 156 C 512.5 152.3 512 148.4 509.8 145.3 C 504.7 138.3 492.6 138.8 487.9 145.9 Z" class="style0"/><path d=" M 718.8 133.6 C 725.7 129.8 734.1 129.4 741.7 131.3 C 748.9 133.1 754.9 138.6 757.5 145.6 C 760.1 152 759.8 159 759.8 165.7 C 745.9 165.7 732.1 165.7 718.3 165.7 C 718.5 171.2 720 177.1 724.4 180.7 C 728.6 184.4 734.6 184.9 739.9 184.4 C 745.7 184.1 751.3 182.3 756.6 180 C 756.6 183.7 756.6 187.3 756.6 190.9 C 748.4 194.9 738.9 195.7 729.9 194.8 C 722.2 193.9 714.8 190.1 710.4 183.6 C 704.6 175.3 703.9 164.6 705.3 154.8 C 706.6 146.4 711.1 137.9 718.8 133.6 M 721.9 145.9 C 719.8 148.8 719 152.4 718.6 156 C 728 156 737.4 156 746.8 156 C 746.5 152.3 746 148.3 743.7 145.3 C 738.7 138.3 726.6 138.8 721.9 145.9 Z" class="style0"/><path d=" M 787.9 139.9 C 792.7 131.5 803.5 128.9 812.5 130.7 C 818.3 131.4 823.4 135.2 826 140.4 C 829.3 135.4 834.4 131.6 840.4 130.7 C 847 129.7 854.4 130 859.9 134.1 C 865.4 138.2 866.9 145.5 867 152 C 867 166 867 180 867 194.1 C 862.6 194.1 858.2 194.1 853.8 194.1 C 853.7 180.8 853.8 167.5 853.7 154.3 C 853.6 149.9 852.6 144.8 848.4 142.5 C 844 140.3 838.5 140.8 834.3 143.2 C 829.1 146.6 828 153.4 827.9 159.1 C 827.8 170.7 827.9 182.4 827.8 194.1 C 823.4 194.1 818.9 194.1 814.5 194.1 C 814.5 181.1 814.5 168.1 814.5 155.1 C 814.4 150.6 813.6 145.1 809.4 142.5 C 805 140.3 799.5 140.8 795.3 143.2 C 790.1 146.6 789.1 153.4 788.8 159.1 C 788.6 170.8 788.8 182.4 788.7 194.1 C 784.3 194.1 779.9 194.1 775.4 194.1 C 775.4 173.1 775.4 152.2 775.4 131.3 C 778.9 131.3 782.3 131.3 785.8 131.3 C 786.4 134.2 787.1 137.1 787.9 139.9 Z" class="style0"/><path d=" M 893.9 134.8 C 900.8 130.1 909.9 129.3 918 131.1 C 925.2 132.7 931.4 138 934.2 144.9 C 937.1 151.4 936.8 158.7 936.8 165.7 C 922.9 165.7 909.1 165.7 895.3 165.7 C 895.5 171.2 897 177 901.4 180.7 C 905.6 184.4 911.6 184.9 917 184.4 C 922.8 184.1 928.3 182.3 933.6 180 C 933.6 183.7 933.6 187.3 933.6 190.9 C 925.7 194.8 916.6 195.6 907.9 194.9 C 900.1 194.2 892.4 190.6 887.8 184.2 C 881.8 176.1 881 165.5 882.2 155.9 C 883.2 147.7 887 139.6 893.9 134.8 M 898.9 145.9 C 896.8 148.9 896 152.5 895.6 156 C 905 156 914.4 156 923.8 156 C 923.5 152.3 923 148.3 920.7 145.3 C 915.6 138.3 903.6 138.8 898.9 145.9 Z" class="style0"/><path d=" M 117.4 186.2 C 149.3 185.9 181.1 186.1 213 186.1 C 219.8 205 226.5 223.9 233.2 242.8 C 219.5 243.4 205.5 239.6 194.1 231.9 C 183.7 225 175.5 215 170.4 203.7 C 168.3 221.4 168.8 239.6 172.4 257.1 C 175 269.2 179.1 281.5 187.3 291 C 172.4 291 157.6 290.8 142.7 290.9 C 149.7 282.5 153.7 272.1 156.4 261.6 C 161.1 242.6 161.8 222.8 159.6 203.4 C 153.5 217.6 142.2 229.5 128.3 236.3 C 118.8 240.9 108.2 243.2 97.7 242.8 C 104.3 223.9 111 205.1 117.4 186.2 Z" class="style0"/></g></svg>